<svg width="45" height="45" viewBox="0 0 45 45" fill="none" xmlns="http://www.w3.org/2000/svg">
<path d="M42.9752 8H2.0234C1.45867 8 1 8.46255 1 9.0353V35.9633C1 36.536 1.45867 37 2.0234 37H42.9752C43.5428 37 44 36.536 44 35.9633V9.0353C44 8.46255 43.5428 8 42.9752 8ZM3.04823 11.2901L15.6874 21.5387L3.04823 33.3185V11.2901ZM22.5 24.4111L4.81983 10.0706H40.1816L22.5 24.4111ZM17.3027 22.8494L21.8579 26.5441C21.8593 26.5441 21.8622 26.547 21.8636 26.547C21.8736 26.5557 21.8851 26.5644 21.8937 26.5716C21.9123 26.5847 21.9295 26.5991 21.9482 26.6093C21.9596 26.618 21.9711 26.6238 21.9826 26.6311C22.0026 26.6441 22.0241 26.6557 22.0442 26.6658C22.0542 26.6687 22.0628 26.6745 22.0714 26.6803C22.103 26.6934 22.1359 26.7065 22.1675 26.7166C22.1689 26.7166 22.1703 26.7166 22.1718 26.7195C22.2019 26.7282 22.2348 26.7398 22.2664 26.7442C22.275 26.7471 22.2821 26.75 22.2907 26.75C22.318 26.7572 22.3438 26.7601 22.371 26.763C22.3782 26.7659 22.3882 26.7659 22.3954 26.7659C22.4298 26.7717 22.4627 26.7746 22.4971 26.7746C22.5315 26.7746 22.5659 26.7717 22.6003 26.7659C22.6075 26.7659 22.6161 26.7659 22.6233 26.763C22.6519 26.7601 22.6792 26.7572 22.705 26.75C22.7136 26.75 22.7222 26.7471 22.7293 26.7442C22.7609 26.7398 22.7924 26.7282 22.8239 26.7195C22.8254 26.7166 22.8268 26.7166 22.8282 26.7166C22.8612 26.705 22.8927 26.6919 22.9243 26.6803C22.9343 26.6745 22.9429 26.6687 22.9515 26.6658C22.973 26.6542 22.9931 26.6427 23.016 26.6311C23.0275 26.6238 23.0389 26.618 23.049 26.6093C23.0662 26.5977 23.0848 26.5832 23.102 26.5716C23.1135 26.5644 23.1249 26.5557 23.1335 26.547C23.135 26.547 23.1378 26.5441 23.1393 26.5441L27.6944 22.8494L40.656 34.9279H4.34253L17.3027 22.8494ZM29.3141 21.5387L41.9518 11.2901V33.2938L29.3141 21.5387Z" fill="#383A3F"/>
</svg>
