<svg width="32" height="32" viewBox="0 0 32 32" fill="none" xmlns="http://www.w3.org/2000/svg">
<g clip-path="url(#clip0_1322_5)">
<rect width="32" height="32" fill="#099CAD"/>
<path d="M5.89414 15.9843C5.8966 16.9043 6.10542 17.7104 6.52061 18.4026C6.94909 19.0815 7.50383 19.6067 8.18483 19.9782C8.86579 20.3364 9.60627 20.5144 10.4063 20.5122C11.0729 20.5105 11.666 20.4222 12.1856 20.2475C12.7051 20.0728 13.1711 19.8382 13.5837 19.5437C14.0096 19.2493 14.3754 18.9283 14.6811 18.5808L14.6897 21.8008C14.1176 22.2557 13.4919 22.6107 12.8126 22.8658C12.1466 23.1209 11.3003 23.2499 10.2736 23.2526C9.20693 23.2555 8.21314 23.0848 7.29221 22.7406C6.38462 22.3963 5.58995 21.8985 4.90821 21.247C4.2398 20.5954 3.71775 19.8301 3.34206 18.9511C2.97968 18.0588 2.79704 17.0726 2.79415 15.9926C2.79126 14.9126 2.96864 13.9321 3.32629 13.0512C3.69723 12.1568 4.21516 11.3821 4.88008 10.727C5.55833 10.0718 6.35032 9.56972 7.25606 9.22063C8.17513 8.8715 9.16799 8.69551 10.2347 8.69266C11.2613 8.68992 12.1083 8.81432 12.7757 9.06587C13.4563 9.31738 14.0839 9.66904 14.6585 10.1208L14.6671 13.3408C14.3595 12.995 13.992 12.676 13.5645 12.3838C13.1504 12.0915 12.6831 11.8595 12.1627 11.6875C11.6422 11.5156 11.0486 11.4305 10.382 11.4323C9.58199 11.4344 8.84249 11.6231 8.16349 11.9982C7.48445 12.36 6.93251 12.8815 6.50767 13.5626C6.09615 14.2437 5.89164 15.051 5.89414 15.9843ZM22.8326 18.059L26.5882 8.92893L29.9081 8.92005L22.8478 23.759L15.7082 8.95803L19.0082 8.9492L22.8326 18.059Z" fill="#1C202B"/>
</g>
<defs>
<clipPath id="clip0_1322_5">
<rect width="32" height="32" fill="white"/>
</clipPath>
</defs>
</svg>
