<svg width="45" height="45" viewBox="0 0 45 45" fill="none" xmlns="http://www.w3.org/2000/svg">
<g clip-path="url(#clip0_1219_833)">
<path d="M0 22.5C0 16.289 2.19726 10.9863 6.59184 6.59179C10.9863 2.19726 16.289 0 22.5 0C28.7109 0 34.0136 2.19726 38.4082 6.59179C42.8027 10.9863 45 16.289 45 22.5C45 28.7109 42.8027 34.0136 38.4082 38.4082C34.0137 42.8027 28.711 45 22.5 45C16.289 45 10.9863 42.8027 6.59184 38.4082C2.19726 34.0137 0 28.7109 0 22.5ZM2.46093 22.5C2.46093 28.0078 4.42382 32.7246 8.3496 36.6504C12.2754 40.5761 16.9922 42.5391 22.5 42.5391C28.0078 42.5391 32.7246 40.5762 36.6504 36.6504C40.5762 32.7246 42.5391 28.0078 42.5391 22.5C42.5391 16.9922 40.5762 12.2754 36.6504 8.3496C32.7246 4.42382 28.0078 2.46093 22.5 2.46093C16.9922 2.46093 12.2754 4.42382 8.3496 8.3496C4.42382 12.2754 2.46093 16.9922 2.46093 22.5ZM8.7891 27.334C8.67191 27.2168 8.67191 27.0996 8.7891 26.9824C9.02343 26.748 9.31644 26.6601 9.66796 26.7187C10.0195 26.7773 10.2246 26.8359 10.2832 26.8945C10.6933 27.0703 11.1475 27.4658 11.6455 28.081C12.1435 28.6963 12.539 29.1211 12.832 29.3554C14.2383 30.5273 15.6738 30.6152 17.1386 29.6191C17.2558 29.209 17.4462 28.8574 17.7099 28.5644C17.9735 28.2714 18.2226 28.0664 18.457 27.9491C18.6914 27.832 19.1015 27.6562 19.6875 27.4218C17.7538 27.246 16.1865 26.9091 14.9853 26.411C13.7841 25.913 12.832 25.2831 12.1288 24.5214C11.1913 23.4667 10.62 22.0898 10.415 20.3906C10.2098 18.6913 10.3417 17.1386 10.8105 15.7324C11.1621 14.8535 11.6601 14.0625 12.3046 13.3593C11.8358 11.8945 11.9237 10.2246 12.5683 8.34956C14.4433 8.46674 16.1425 9.11127 17.6659 10.2831C20.5956 9.52143 23.6425 9.49213 26.8065 10.1953C27.2166 9.90229 27.8465 9.5361 28.6961 9.0966C29.5457 8.65715 30.6151 8.4081 31.9041 8.34951C32.1385 8.99404 32.2997 9.75576 32.3875 10.6347C32.4754 11.5136 32.4315 12.3339 32.2557 13.0956C33.6033 14.5018 34.3065 16.3768 34.3651 18.7206C34.3651 20.5956 34.0428 22.1483 33.3983 23.3788C32.7538 24.6093 31.6112 25.6346 29.9706 26.4549C28.8573 26.9823 27.3925 27.3045 25.5761 27.4217C26.3964 27.8319 26.997 28.2567 27.3778 28.6961C27.7587 29.1356 28.0077 29.8241 28.125 30.7616V33.5302L28.2128 36.2108C28.3886 36.5038 28.5937 36.7528 28.8281 36.9579C29.0625 37.163 29.2675 37.3095 29.4433 37.3974C29.6191 37.4853 29.6777 37.6171 29.6191 37.7929C29.5605 37.9687 29.3261 38.0566 28.916 38.0566C27.9198 38.0566 27.1289 37.705 26.5429 37.0019C26.3672 36.7089 26.2793 36.3574 26.2793 35.9472V31.7284C26.2793 31.2597 26.1621 30.9228 25.9277 30.7177C25.6933 30.5126 25.459 30.3807 25.2246 30.3221V35.8592C25.2246 36.8553 25.3418 37.4999 25.5761 37.7928C25.8105 38.0858 25.957 38.3788 26.0156 38.6717C26.0742 38.7303 26.0303 38.7743 25.8838 38.8036C25.7373 38.8328 25.4883 38.7889 25.1367 38.6717C24.375 38.496 23.8476 38.1004 23.5547 37.4852C23.2617 36.87 23.1152 36.2108 23.1152 35.5076V30.0586H21.9726V35.5078C21.9726 36.2109 21.8261 36.8848 21.5331 37.5293C21.123 38.3496 20.3613 38.789 19.248 38.8476C19.0722 38.789 18.9844 38.7304 18.9844 38.6719C19.0429 38.6132 19.2187 38.3203 19.5117 37.793C19.5703 37.6758 19.6436 37.4414 19.7314 37.0899C19.8194 36.7383 19.8633 36.3281 19.8633 35.8594V30.3222C19.6289 30.3808 19.4092 30.5126 19.2041 30.7178C18.999 30.9229 18.8965 31.2598 18.8965 31.7285V35.9473C18.8965 36.3574 18.8086 36.709 18.6328 37.002C18.1054 37.7051 17.3144 38.0567 16.2598 38.0567C15.8496 38.0567 15.6153 37.9688 15.5567 37.793C15.498 37.6758 15.5127 37.5733 15.6006 37.4854C15.6886 37.3975 15.8204 37.2949 15.9962 37.1777C16.1719 37.0606 16.2891 36.9726 16.3477 36.9141C16.5821 36.7383 16.7578 36.5039 16.8751 36.2109C17.0509 35.9766 17.0948 35.3613 17.0069 34.3652C16.919 33.3692 16.9043 32.7246 16.9629 32.4317C15.4394 32.959 13.8867 32.6953 12.3047 31.6406C11.8359 31.1719 11.3672 30.498 10.8984 29.6192C10.5469 28.9746 9.84374 28.2129 8.7891 27.334Z" fill="#383A3F"/>
</g>
<defs>
<clipPath id="clip0_1219_833">
<rect width="45" height="45" fill="white"/>
</clipPath>
</defs>
</svg>
