<svg width="29" height="45" viewBox="0 0 29 45" fill="none" xmlns="http://www.w3.org/2000/svg">
<path d="M24.7882 -0.00113297H4.20918C1.99481 -0.00113297 0.194702 1.83623 0.194702 4.09679V40.908C0.194702 43.1656 1.99481 45 4.20918 45H24.7882C27.0026 45 28.8042 43.1656 28.8042 40.908V4.09679C28.8056 1.83772 27.004 -0.00113297 24.7882 -0.00113297ZM14.5002 39.853C14.8235 39.853 15.0858 40.1227 15.0858 40.4521C15.0858 40.7859 14.8235 41.0571 14.5002 41.0571C14.1768 41.0571 13.9145 40.7844 13.9145 40.4521C13.9145 40.1212 14.1768 39.853 14.5002 39.853ZM2.37778 38.2079L13.8087 38.1751C12.8506 38.4776 12.1487 39.3791 12.1487 40.4521C12.1487 41.5846 12.9251 42.5308 13.9607 42.7812H4.21067C3.20034 42.7812 2.37927 41.9422 2.37927 40.9095V38.2079H2.37778ZM16.8516 40.4521C16.8516 39.3717 16.1423 38.4687 15.1782 38.1706L26.6196 38.1378V40.9095C26.6196 41.9407 25.7985 42.7812 24.7882 42.7812H15.0396C16.0768 42.5293 16.8516 41.5846 16.8516 40.4521ZM26.6896 35.9816L2.37927 36.0531V9.01876L26.6211 8.95022L26.6896 35.9816ZM4.20918 2.22367H24.7882C25.7985 2.22367 26.6196 3.06411 26.6196 4.10275L26.6866 6.79993L2.37778 6.86698V4.09679C2.37778 3.06411 3.20034 2.22367 4.20918 2.22367Z" fill="#383A3F"/>
<path d="M11.3664 5.40663H17.6325C18.1182 5.40663 18.5146 5.00429 18.5146 4.50956C18.5146 4.01334 18.1182 3.60951 17.6325 3.60951H11.3664C10.8806 3.60951 10.4842 4.01334 10.4842 4.50956C10.4857 5.00578 10.8806 5.40663 11.3664 5.40663Z" fill="#383A3F"/>
</svg>
