<svg width="45" height="45" viewBox="0 0 45 45" fill="none" xmlns="http://www.w3.org/2000/svg">
<g clip-path="url(#clip0_1219_286)">
<path d="M32.7882 -0.00113297H12.2092C9.99481 -0.00113297 8.1947 1.83623 8.1947 4.09679V40.908C8.1947 43.1656 9.99481 45 12.2092 45H32.7882C35.0026 45 36.8042 43.1656 36.8042 40.908V4.09679C36.8056 1.83772 35.004 -0.00113297 32.7882 -0.00113297ZM22.5002 39.853C22.8235 39.853 23.0858 40.1227 23.0858 40.4521C23.0858 40.7859 22.8235 41.0571 22.5002 41.0571C22.1768 41.0571 21.9145 40.7844 21.9145 40.4521C21.9145 40.1212 22.1768 39.853 22.5002 39.853ZM10.3778 38.2079L21.8087 38.1751C20.8506 38.4776 20.1487 39.3791 20.1487 40.4521C20.1487 41.5846 20.9251 42.5308 21.9607 42.7812H12.2107C11.2003 42.7812 10.3793 41.9422 10.3793 40.9095V38.2079H10.3778ZM24.8516 40.4521C24.8516 39.3717 24.1423 38.4687 23.1782 38.1706L34.6196 38.1378V40.9095C34.6196 41.9407 33.7985 42.7812 32.7882 42.7812H23.0396C24.0768 42.5293 24.8516 41.5846 24.8516 40.4521ZM34.6896 35.9816L10.3793 36.0531V9.01876L34.6211 8.95022L34.6896 35.9816ZM12.2092 2.22367H32.7882C33.7985 2.22367 34.6196 3.06411 34.6196 4.10275L34.6866 6.79993L10.3778 6.86698V4.09679C10.3778 3.06411 11.2003 2.22367 12.2092 2.22367Z" fill="#383A3F"/>
<path d="M19.3664 5.40663H25.6325C26.1182 5.40663 26.5146 5.00429 26.5146 4.50956C26.5146 4.01334 26.1182 3.60951 25.6325 3.60951H19.3664C18.8806 3.60951 18.4842 4.01334 18.4842 4.50956C18.4857 5.00578 18.8806 5.40663 19.3664 5.40663Z" fill="#383A3F"/>
</g>
<defs>
<clipPath id="clip0_1219_286">
<rect width="45" height="45" fill="white"/>
</clipPath>
</defs>
</svg>
