<svg width="45" height="45" viewBox="0 0 45 45" fill="none" xmlns="http://www.w3.org/2000/svg">
<g clip-path="url(#clip0_1219_723)">
<path fill-rule="evenodd" clip-rule="evenodd" d="M27.686 37.7568L16.4875 43.3039C15.9689 43.2702 15.5005 42.9268 14.9976 42.0748L0 2.11841C0.0203665 1.55038 0.55773 1 1.21886 1L46.5861 26.4138C46.7913 26.6401 47.0624 27.4006 46.9872 27.9221C46.959 28.1179 46.8885 28.2463 46.7757 28.3056L36.9747 33.158V42.2304C36.9747 43.7163 35.8294 44.9342 34.3959 45L27.686 37.7568ZM29.3466 36.9449L33.022 40.9099C33.5531 41.4634 33.8116 41.6993 34.0763 41.6993H34.0779C34.2581 41.6993 34.4868 41.5998 34.5432 41.1168C34.5683 40.9002 34.5714 40.5697 34.5714 40.1188V34.9519L34.5902 34.9343L34.609 34.7209L34.5871 34.5572L34.5761 34.5508L34.5714 33.5062L34.5667 33.5094C34.5792 32.7279 34.6121 31.8631 34.6121 31.8631L34.62 31.6978L21.9207 22.1648L21.5196 22.6189L30.8522 33.3072L30.9086 33.2767L32.14 34.7802L32.599 35.3066L29.3466 36.9449ZM6.45462 6.94829C5.75276 6.94829 5.1825 7.53076 5.1825 8.24963L16.4233 38.5687C16.7288 39.0902 17.1502 39.6358 17.9226 39.6358L27.498 34.9471L27.7267 34.8861L30.0579 33.7068L15.0697 16.5551L35.795 30.8489L40.8459 28.3602C41.0072 28.2736 41.1968 28.0986 41.2516 27.7312C41.319 27.2626 41.1169 26.6015 40.8114 26.2903L6.53139 6.94829H6.45462Z" fill="#383A3F"/>
</g>
<defs>
<clipPath id="clip0_1219_723">
<rect width="45" height="45" fill="white"/>
</clipPath>
</defs>
</svg>
